<?xml version="1.0" encoding="UTF-8" standalone="no"?>
<!-- Created with Inkscape (http://www.inkscape.org/) -->
<svg
   xmlns:svg="http://www.w3.org/2000/svg"
   xmlns="http://www.w3.org/2000/svg"
   version="1.0"
   width="399.82101"
   height="214.98"
   viewBox="0 0 399.821 214.98"
   id="Layer_1"
   xml:space="preserve"
   style="overflow:visible"><defs
   id="defs76" />
<path
   d="M 126.833,132.089 C 130.439,130.598 127.833,125.756 127.833,125.756 C 127.833,125.756 101.5,120.756 106.833,101.756 C 112.166,82.756 112.166,82.756 112.166,82.756 C 112.166,82.756 118.499,78.088 123.833,74.422 C 129.167,70.756 127.5,69.423 123.166,70.756 C 122.499,69.422 125.499,66.089 125.833,65.423 C 126.166,64.755 131.833,52.422 120.5,69.089 C 120.5,70.089 110.833,81.089 116.5,61.423 C 116.5,61.423 123.833,26.089 115.5,51.755 C 115.5,51.755 113.5,58.089 111.5,53.755 C 111.5,53.755 115.5,67.09 103.167,99.756 C 100.167,97.089 98.167,94.422 98.167,94.422 C 97.167,92.756 96.5,88.756 101.167,80.089 C 105.834,71.422 108.5,66.089 108.5,66.089 C 108.5,66.089 112.833,57.755 107.5,63.755 C 107.5,63.755 107.833,44.756 104.5,68.089 C 104.5,68.089 101.834,72.09 100.167,73.756 C 100.167,73.756 104.834,62.756 99.167,65.423 C 99.167,65.423 96.167,58.423 96.5,66.423 C 96.833,74.422 98.5,76.09 97.5,80.756 C 96.5,85.422 94.833,83.422 94.5,79.422 C 94.167,75.422 84.5,79.756 99.833,104.089 C 99.833,104.089 105.166,129.422 85.5,111.422 C 85.5,111.422 60.833,91.755 92.5,68.422 C 88.5,71.422 86.833,74.757 87.5,70.756 C 88.167,66.755 87.5,67.089 87.5,67.089 C 87.5,67.089 83.833,74.09 81.5,75.756 C 79.167,77.422 69.833,80.423 90.5,57.089 C 86.5,60.089 79.167,65.756 86.5,49.422 C 79.5,60.422 75.167,73.089 71.167,62.089 C 71.167,62.089 75.5,108.421 65.167,78.422 C 65.167,78.422 61.5,72.422 70.167,42.755 C 67.167,49.422 64.5,58.755 65.167,39.422 C 65.167,39.422 62.167,40.422 62.834,61.755 C 62.834,61.755 53.501,83.089 55.501,54.755 C 55.501,54.755 58.501,42.089 58.834,39.755 C 59.167,37.421 57.167,40.422 56.501,41.755 C 55.835,43.088 55.834,36.755 55.834,36.755 C 55.834,36.755 53.834,39.755 53.501,43.755 C 53.168,47.755 50.168,40.755 49.168,39.088 C 48.168,37.421 55.834,50.088 50.501,60.754 C 50.501,60.754 42.835,48.088 42.168,51.754 C 41.501,55.421 58.168,75.422 58.501,76.755 C 58.834,78.088 68.501,87.755 56.501,86.088 C 52.501,85.755 50.168,83.421 48.168,80.088 C 46.168,76.755 41.835,70.088 41.835,70.088 L 32.168,59.088 L 31.5,43.755 L 30.167,47.422 L 27.834,45.089 L 29.834,49.756 L 30.167,56.089 L 27.834,57.089 C 27.834,57.089 55.834,85.423 33.167,74.756 C 33.167,74.756 24.833,77.09 43.5,81.756 C 43.5,81.756 44.833,89.422 60.833,90.422 C 60.833,90.422 72.833,103.423 75.833,115.756 C 75.833,115.756 79.166,142.423 63.833,121.756 C 63.833,121.756 66.833,129.089 64.833,129.089 C 62.833,129.089 53.166,123.422 51.833,123.422 C 50.5,123.422 46.5,125.422 46.5,125.422 C 46.5,125.422 73.5,132.088 48.167,132.422 C 48.167,132.422 30.167,138.755 37.167,96.422 C 37.167,96.422 34.834,108.756 32.834,97.089 C 32.834,97.089 27.501,123.423 32.834,133.756 C 32.834,133.756 37.834,140.088 30.501,140.422 C 30.501,140.422 39.501,139.088 48.501,136.422 C 48.501,136.422 41.834,149.756 38.501,149.756 C 38.501,149.756 41.501,150.422 38.168,152.422 C 38.168,152.422 39.501,155.088 43.168,150.422 C 46.835,145.756 52.168,134.423 65.168,134.756 C 69.501,136.089 85.501,149.422 61.168,154.089 C 53.835,157.089 26.168,167.09 28.501,168.756 C 30.834,170.422 44.834,160.422 42.501,165.422 C 40.168,170.422 32.501,184.756 32.501,184.756 C 32.501,184.756 41.834,163.423 39.834,179.756 C 40.834,181.089 65.167,134.423 47.834,179.756 C 48.167,180.756 52.167,173.755 52.834,183.089 C 52.834,183.089 53.167,147.757 78.167,158.423 C 78.834,167.423 73.5,179.755 59.5,188.089 C 73.833,179.756 76.167,176.089 69.5,190.089 C 72.833,186.756 74.5,187.09 75.5,191.423 C 76.833,176.423 79.5,171.757 82.167,169.423 C 84.834,176.423 85.834,179.422 86.167,181.089 C 86.5,182.756 84.5,157.422 84.167,156.089 C 83.834,154.756 97.167,155.423 97.167,155.423 C 97.167,155.423 107.167,174.757 102.834,183.423 C 105.167,176.089 101.167,161.422 118.834,187.089 C 118.834,187.089 106.834,173.756 126.167,178.756 C 119.5,173.423 107.167,166.09 103.834,160.423 C 100.501,154.756 99.834,147.09 110.167,154.423 C 120.5,161.756 126.834,164.755 127.834,164.089 C 128.834,163.423 108.167,154.089 131.167,158.089 C 116.5,151.756 92.167,146.422 126.833,132.089 z"
   id="path3"
   style="fill:#afa3cf;stroke:#000000" />
<path
   d="M 85.125,136.589 C 85,132.089 86.5,130.714 89.25,131.089 C 92,131.464 94.75,132.714 95.875,133.964 C 97,135.214 98.625,137.464 98.875,138.339 C 99.125,139.214 99.25,140.089 99.375,140.964 C 99.5,141.839 99.875,142.714 99.5,143.464 C 99.125,144.214 98.625,145.839 97.625,145.964 C 96.625,146.089 96,146.339 94.875,145.714 C 93.75,145.089 92,143.964 91.25,143.339 C 90.5,142.714 87.5,139.714 86.875,138.839 C 86.25,137.964 85.125,136.589 85.125,136.589 z"
   id="path5"
   style="fill:#5b9974;stroke:#000000" />
<path
   d="M 127.5,133.339 C 129.75,128.839 129.125,127.339 128.625,125.964 C 128.125,124.589 146.25,123.964 158.625,130.964 C 158.625,130.964 170.375,134.964 159.875,142.464 C 159.875,142.464 140.375,145.339 127.5,133.339 z"
   id="path7"
   style="fill:#f9d566;stroke:#000000" />
<path
   d="M 168.375,145.839 C 168.375,145.839 164.75,144.089 165.875,140.839 C 167,137.589 168,137.589 169,137.214 C 170,136.839 175.75,136.964 176.25,136.964 C 176.75,136.964 196,138.964 198.625,141.214 C 201.25,143.464 202.125,146.214 202.125,147.339 C 202.125,148.464 201.875,152.089 198.375,152.089 C 194.875,152.089 180,151.839 179.375,151.214 C 178.75,150.589 170.875,148.464 168.375,145.839 z"
   id="path9"
   style="fill:#f9d566;stroke:#000000" />
<path
   d="M 214.375,155.089 C 207.75,152.964 204.875,150.464 205.125,147.839 C 205.375,145.214 205.875,144.214 207,143.589 C 208.125,142.964 210.875,142.214 211.625,141.964 C 212.375,141.714 234,138.589 236.125,139.089 C 238.25,139.589 240.875,142.089 241.125,143.589 C 241.375,145.089 243.75,148.589 238.375,150.839 C 233,153.089 229,154.589 225.375,154.839 C 221.75,155.089 214.375,155.089 214.375,155.089 z"
   id="path11"
   style="fill:#f9d566;stroke:#000000" />
<path
   d="M 252.125,145.464 C 246.116,145.84 244.25,146.589 244.375,142.089 C 244.5,137.589 244,135.964 247.625,134.214 C 251.25,132.464 261.5,125.714 263.125,124.964 C 264.75,124.214 270,122.589 272.375,125.714 C 274.75,128.839 274.5,130.214 272,132.964 C 269.5,135.714 256.125,145.214 252.125,145.464 z"
   id="path13"
   style="fill:#f9d566;stroke:#000000" />
<path
   d="M 274,122.839 C 271.56,118.307 270.625,115.839 272.875,112.589 C 275.125,109.339 286,93.839 286.375,93.339 C 286.75,92.839 291,90.964 294.75,94.214 C 298.5,97.464 299.25,99.714 295.75,104.464 C 292.25,109.214 284.125,121.964 281.25,123.464 C 278.375,124.964 275.75,126.089 274,122.839 z"
   id="path15"
   style="fill:#f9d566;stroke:#000000" />
<ellipse
   cx="140"
   cy="130.964"
   rx="3.375"
   ry="2.125"
   id="ellipse17"
   style="fill:#e68b60;stroke:#b76328" />
<ellipse
   cx="181.875"
   cy="144.839"
   rx="3.375"
   ry="2.125"
   id="ellipse19"
   style="fill:#e68b60;stroke:#b76328" />
<ellipse
   cx="224.125"
   cy="147.839"
   rx="3.375"
   ry="2.125"
   id="ellipse21"
   style="fill:#e68b60;stroke:#b76328" />
<ellipse
   cx="258.5"
   cy="134.214"
   rx="3.375"
   ry="2.125"
   transform="matrix(0.912,-0.4103,0.4103,0.912,-32.3066,117.8699)"
   id="ellipse23"
   style="fill:#e68b60;stroke:#b76328" />
<ellipse
   cx="283.625"
   cy="107.464"
   rx="3.375"
   ry="2.125"
   transform="matrix(0.5422,-0.8402,0.8402,0.5422,39.543,287.5071)"
   id="ellipse25"
   style="fill:#e68b60;stroke:#b76328" />
<path
   d="M 164.25,137.089 C 166.5,137.589 168,137.589 168,137.589 L 165.875,140.839 L 161.75,140.714 L 164.25,137.089 z"
   id="path27"
   style="fill:#afa3cf;stroke:#000000" />
<path
   d="M 201.75,145.214 L 205.875,144.964 L 205,149.089 L 201.875,149.089 C 201.875,149.089 202.125,145.714 201.75,145.214 z"
   id="path29"
   style="fill:#afa3cf;stroke:#000000" />
<path
   d="M 240.25,141.589 C 240.25,141.589 243.625,139.089 243.875,138.464 C 244.125,137.839 244.25,143.464 244.375,143.839 C 244.5,144.214 242.125,144.714 242.125,144.714 L 240.25,141.589 z"
   id="path31"
   style="fill:#afa3cf;stroke:#000000" />
<path
   d="M 269.625,123.714 L 272.375,119.839 L 275.25,124.214 L 273.25,126.089 C 273.25,126.089 271.5,123.964 269.625,123.714 z"
   id="path33"
   style="fill:#afa3cf;stroke:#000000" />
<path
   d="M 291.167,92.256 C 291.208,92.166 291.249,92.076 291.29,91.986 C 294.565,84.735 297.184,77.214 298.5,73.922 C 299.833,70.589 300.333,62.756 299.833,61.922 C 299.333,61.088 297.833,55.422 294,56.589 C 290.167,57.756 291.499,56.589 290.333,58.422 C 289.167,60.255 286.334,60.422 286.167,58.755 C 286,57.088 286.667,56.588 289.5,56.088 C 292.333,55.588 290.833,53.588 288.833,51.755 C 286.833,49.922 281.499,49.922 285.333,47.422 C 289.167,44.922 289.333,44.588 290.833,45.755 C 292.333,46.922 287.666,47.755 291.833,50.255 C 296,52.755 298.999,54.255 300.333,54.422 C 301.667,54.589 302.833,54.755 302.833,53.255 C 302.833,51.755 304.5,50.255 305.5,49.422 C 306.5,48.589 307,45.255 307,45.255 C 307,45.255 303.5,42.089 306.5,42.422 C 309.5,42.755 311,42.922 309.5,44.755 C 309.833,45.255 309.334,46.755 309.667,47.255 C 310,47.755 315,47.089 315,47.089 C 315,47.089 319.5,46.756 318,49.589 C 317.667,50.422 316.5,51.589 314.5,50.256 C 312.667,50.589 310.833,49.923 310.333,50.089 C 309.833,50.255 303.166,53.256 303.833,68.256 C 308.333,65.756 321.501,57.922 323.167,57.256 C 324.833,56.59 332.833,47.423 333,46.589 C 333.167,45.755 331.334,43.256 331.667,42.589 C 332,41.922 335.166,40.589 335.833,40.422 C 336.5,40.255 337.334,38.422 338.167,40.589 C 339,42.756 338.834,42.756 338.167,43.256 C 337.5,43.756 337.001,44.089 337.167,45.089 C 337.333,46.089 337.5,46.756 338,46.589 C 338.5,46.422 338.833,47.422 338.833,47.422 L 332.167,52.755 C 332.167,52.755 338.334,51.588 339.167,50.755 C 340,49.922 341.667,49.088 342,50.255 C 342.333,51.422 342.667,51.089 342,51.922 C 341.333,52.755 340.167,53.588 338,54.255 C 335.833,54.922 334.333,55.588 333,55.755 C 331.667,55.922 329.167,56.755 329.167,56.755 C 329.167,56.755 327.834,57.088 325.167,59.255 C 322.5,61.422 320.667,62.422 319,63.422 C 317.333,64.422 316.167,64.755 314.5,65.922 C 312.833,67.089 310,68.422 310,68.422 C 310,68.422 307.499,69.256 306.833,70.089 C 306.167,70.922 305.001,72.256 304.667,72.756 C 304.333,73.256 303.667,74.922 303.667,74.922 L 303,77.922 L 300.833,80.422 L 300.333,82.756 C 300.333,82.756 304.499,83.256 305.333,83.256 C 306.167,83.256 306.833,83.255 308,82.422 C 309.167,81.589 309,82.088 310,80.922 C 311,79.756 312.167,78.589 312.667,77.589 C 313.167,76.589 314.333,75.422 315.333,74.589 C 316.333,73.756 317.666,72.588 318.333,72.422 C 319,72.256 321.333,71.589 321.833,71.089 C 322.333,70.589 322.834,71.09 323.167,70.256 C 323.5,69.422 324.501,67.756 324.667,66.923 C 324.833,66.09 324.833,65.756 325.5,65.756 C 326.167,65.756 326.667,65.423 327,66.256 C 327.333,67.089 328.001,66.923 327.667,68.089 C 327.333,69.255 327,69.922 327,69.922 L 327.167,70.256 C 327.167,70.256 328.667,70.755 329.167,69.922 C 329.667,69.089 330.5,68.589 330.5,68.589 L 331.5,67.256 L 332.333,65.756 L 333.167,65.089 L 334.667,64.756 C 334.667,64.756 335.167,64.756 335.5,65.923 C 335.833,67.09 336,67.59 336,68.09 C 336,68.59 334,70.09 334,70.09 L 333.333,70.757 C 333.333,70.757 331.833,71.089 331.333,71.423 C 330.833,71.757 329.167,72.257 329.167,72.257 L 326.833,72.423 L 325.167,73.257 L 324.5,73.757 L 324.5,74.757 C 324.5,74.757 325.167,75.591 325.667,75.757 C 326.167,75.923 329.167,75.757 329.167,75.757 L 329.833,75.59 L 328.833,76.923 L 325.5,77.59 C 325.5,77.59 324.666,77.756 323.833,77.923 C 323,78.09 320.833,78.423 320.833,78.423 C 320.833,78.423 318.999,79.257 318.333,79.757 C 317.667,80.257 316.333,79.924 317.5,80.757 C 318.667,81.59 317.833,82.091 321.5,81.757 C 325.167,81.423 322.834,81.09 326.167,82.09 C 329.5,83.09 330.167,82.757 332.167,83.757 C 334.167,84.757 330.833,84.089 336.5,85.923 C 342.167,87.757 341.999,87.589 345.833,88.923 C 349.667,90.257 349.166,88.423 350.333,90.923 C 351.5,93.423 357,93.756 351.5,93.423 C 346,93.09 347.001,93.09 344.167,92.09 C 341.333,91.09 341.667,90.923 337.5,89.423 C 333.333,87.923 330.833,85.756 335.333,90.923 C 339.833,96.09 340.833,96.59 341.5,101.09 C 342.167,105.59 342.5,115.257 346.5,115.59 C 350.5,115.923 354.001,116.923 351.667,118.923 C 349.333,120.923 345.499,119.591 344.333,117.757 C 343.167,115.923 340.667,114.257 340.167,111.757 C 339.667,109.257 340.501,107.256 339.667,106.923 C 338.833,106.59 338.833,106.591 338,107.257 C 337.167,107.923 337.667,106.423 336.5,109.09 C 335.333,111.757 334.999,112.257 334.333,112.59 C 333.667,112.923 330.167,113.424 330.167,111.757 C 330.167,110.09 330.667,109.589 331.5,109.423 C 332.333,109.257 330.833,110.756 333.5,108.423 C 336.167,106.09 337.334,104.257 337.667,103.257 C 338,102.257 339.833,97.757 332,92.09 C 324.167,86.423 318.334,82.924 311.167,86.257 C 313.167,89.257 316.834,91.59 316.667,97.59 C 316.667,98.257 319.499,100.59 316.333,101.59 C 315.833,101.757 312.833,101.923 314.5,97.59 C 314.5,95.423 315.001,94.091 310.667,90.257 C 310.833,93.923 310.499,97.589 310.833,98.923 C 311.167,100.257 314.001,103.424 310.167,104.757 C 308,104.257 306.333,102.924 308.833,98.757 C 308.833,94.923 304.834,78.424 294.667,93.757 C 292.333,93.089 291.167,92.256 291.167,92.256 z"
   id="path35"
   style="fill:#afa3cf;stroke:#000000" />
<path
   id="path37"
   style="fill:#afa3cf;stroke:#000000" />
























</svg>